<svg width="26" height="25" viewBox="0 0 26 25" fill="none" xmlns="http://www.w3.org/2000/svg">
<path d="M13 20.7006L13.2021 21.1592C13.2019 21.1592 13.2017 21.1593 13.2015 21.1594L13.2021 21.1592L13 20.7006ZM13 20.7006L12.7979 21.1592C12.7981 21.1592 12.7983 21.1593 12.7985 21.1594L12.7979 21.1592L13 20.7006ZM14.2992 1.74888C13.7192 0.753184 12.2808 0.753178 11.7008 1.74888L8.46782 7.29961L2.18971 8.65912C1.06353 8.90299 0.619024 10.271 1.38678 11.1303L5.66678 15.9203L5.0197 22.3113C4.90363 23.4577 6.06736 24.3032 7.1218 23.8385L13 21.2482L18.8782 23.8385C19.9326 24.3032 21.0964 23.4577 20.9803 22.3113L20.3332 15.9203L24.6132 11.1303C25.381 10.271 24.9365 8.90299 23.8103 8.65912L17.5322 7.29961L14.2992 1.74888ZM20.1861 16.085L20.1865 16.0846C20.1863 16.0847 20.1862 16.0849 20.1861 16.085L19.8124 15.7511L20.1861 16.085Z" stroke="#F4B719" stroke-width="2"/>
</svg>
