<svg width="96" height="16" viewBox="0 0 96 16" fill="none" xmlns="http://www.w3.org/2000/svg">
<path d="M8.275 11.9188L11.425 13.9188C11.8312 14.175 12.3312 13.7938 12.2125 13.325L11.3 9.73751C11.2753 9.63807 11.2793 9.53368 11.3113 9.43638C11.3434 9.33907 11.4023 9.2528 11.4813 9.18751L14.3062 6.83126C14.675 6.52501 14.4875 5.90626 14.0062 5.87501L10.3188 5.63751C10.2181 5.63166 10.1214 5.59662 10.0404 5.53669C9.95935 5.47675 9.89754 5.39451 9.8625 5.30001L8.4875 1.83752C8.4511 1.73745 8.38479 1.65102 8.29758 1.58994C8.21037 1.52886 8.10647 1.49609 8 1.49609C7.89352 1.49609 7.78963 1.52886 7.70241 1.58994C7.6152 1.65102 7.54889 1.73745 7.5125 1.83752L6.1375 5.30001C6.10245 5.39451 6.04064 5.47675 5.95962 5.53669C5.87859 5.59662 5.78186 5.63166 5.68125 5.63751L1.99375 5.87501C1.5125 5.90626 1.325 6.52501 1.69375 6.83126L4.51875 9.18751C4.59771 9.2528 4.65661 9.33907 4.68868 9.43638C4.72075 9.53368 4.72467 9.63807 4.7 9.73751L3.85625 13.0625C3.7125 13.625 4.3125 14.0813 4.79375 13.775L7.725 11.9188C7.80719 11.8665 7.90259 11.8387 8 11.8387C8.09741 11.8387 8.1928 11.8665 8.275 11.9188Z" fill="#1A1A1A"/>
<path d="M8.275 11.9188L11.425 13.9188C11.8312 14.175 12.3312 13.7938 12.2125 13.325L11.3 9.73751C11.2753 9.63807 11.2793 9.53368 11.3113 9.43638C11.3434 9.33907 11.4023 9.2528 11.4813 9.18751L14.3062 6.83126C14.675 6.52501 14.4875 5.90626 14.0062 5.87501L10.3188 5.63751C10.2181 5.63166 10.1214 5.59662 10.0404 5.53669C9.95935 5.47675 9.89754 5.39451 9.8625 5.30001L8.4875 1.83752C8.4511 1.73745 8.38479 1.65102 8.29758 1.58994C8.21037 1.52886 8.10647 1.49609 8 1.49609C7.89352 1.49609 7.78963 1.52886 7.70241 1.58994C7.6152 1.65102 7.54889 1.73745 7.5125 1.83752L6.1375 5.30001C6.10245 5.39451 6.04064 5.47675 5.95962 5.53669C5.87859 5.59662 5.78186 5.63166 5.68125 5.63751L1.99375 5.87501C1.5125 5.90626 1.325 6.52501 1.69375 6.83126L4.51875 9.18751C4.59771 9.2528 4.65661 9.33907 4.68868 9.43638C4.72075 9.53368 4.72467 9.63807 4.7 9.73751L3.85625 13.0625C3.7125 13.625 4.3125 14.0813 4.79375 13.775L7.725 11.9188C7.80719 11.8665 7.90259 11.8387 8 11.8387C8.09741 11.8387 8.1928 11.8665 8.275 11.9188ZM8.275 11.9188V11.9188Z" stroke="#1A1A1A" stroke-linecap="round" stroke-linejoin="round"/>
<path d="M28.275 11.9188L31.425 13.9188C31.8312 14.175 32.3312 13.7938 32.2125 13.325L31.3 9.73751C31.2753 9.63807 31.2793 9.53368 31.3113 9.43638C31.3434 9.33907 31.4023 9.2528 31.4813 9.18751L34.3062 6.83126C34.675 6.52501 34.4875 5.90626 34.0062 5.87501L30.3188 5.63751C30.2181 5.63166 30.1214 5.59662 30.0404 5.53669C29.9594 5.47675 29.8975 5.39451 29.8625 5.30001L28.4875 1.83752C28.4511 1.73745 28.3848 1.65102 28.2976 1.58994C28.2104 1.52886 28.1065 1.49609 28 1.49609C27.8935 1.49609 27.7896 1.52886 27.7024 1.58994C27.6152 1.65102 27.5489 1.73745 27.5125 1.83752L26.1375 5.30001C26.1025 5.39451 26.0406 5.47675 25.9596 5.53669C25.8786 5.59662 25.7819 5.63166 25.6813 5.63751L21.9937 5.87501C21.5125 5.90626 21.325 6.52501 21.6937 6.83126L24.5188 9.18751C24.5977 9.2528 24.6566 9.33907 24.6887 9.43638C24.7208 9.53368 24.7247 9.63807 24.7 9.73751L23.8563 13.0625C23.7125 13.625 24.3125 14.0813 24.7938 13.775L27.725 11.9188C27.8072 11.8665 27.9026 11.8387 28 11.8387C28.0974 11.8387 28.1928 11.8665 28.275 11.9188Z" fill="#1A1A1A"/>
<path d="M28.275 11.9188L31.425 13.9188C31.8312 14.175 32.3312 13.7938 32.2125 13.325L31.3 9.73751C31.2753 9.63807 31.2793 9.53368 31.3113 9.43638C31.3434 9.33907 31.4023 9.2528 31.4813 9.18751L34.3062 6.83126C34.675 6.52501 34.4875 5.90626 34.0062 5.87501L30.3188 5.63751C30.2181 5.63166 30.1214 5.59662 30.0404 5.53669C29.9594 5.47675 29.8975 5.39451 29.8625 5.30001L28.4875 1.83752C28.4511 1.73745 28.3848 1.65102 28.2976 1.58994C28.2104 1.52886 28.1065 1.49609 28 1.49609C27.8935 1.49609 27.7896 1.52886 27.7024 1.58994C27.6152 1.65102 27.5489 1.73745 27.5125 1.83752L26.1375 5.30001C26.1025 5.39451 26.0406 5.47675 25.9596 5.53669C25.8786 5.59662 25.7819 5.63166 25.6813 5.63751L21.9937 5.87501C21.5125 5.90626 21.325 6.52501 21.6937 6.83126L24.5188 9.18751C24.5977 9.2528 24.6566 9.33907 24.6887 9.43638C24.7208 9.53368 24.7247 9.63807 24.7 9.73751L23.8563 13.0625C23.7125 13.625 24.3125 14.0813 24.7938 13.775L27.725 11.9188C27.8072 11.8665 27.9026 11.8387 28 11.8387C28.0974 11.8387 28.1928 11.8665 28.275 11.9188ZM28.275 11.9188V11.9188Z" stroke="#1A1A1A" stroke-linecap="round" stroke-linejoin="round"/>
<path d="M48.275 11.9188L51.425 13.9188C51.8312 14.175 52.3312 13.7938 52.2125 13.325L51.3 9.73751C51.2753 9.63807 51.2793 9.53368 51.3113 9.43638C51.3434 9.33907 51.4023 9.2528 51.4813 9.18751L54.3062 6.83126C54.675 6.52501 54.4875 5.90626 54.0062 5.87501L50.3188 5.63751C50.2181 5.63166 50.1214 5.59662 50.0404 5.53669C49.9594 5.47675 49.8975 5.39451 49.8625 5.30001L48.4875 1.83752C48.4511 1.73745 48.3848 1.65102 48.2976 1.58994C48.2104 1.52886 48.1065 1.49609 48 1.49609C47.8935 1.49609 47.7896 1.52886 47.7024 1.58994C47.6152 1.65102 47.5489 1.73745 47.5125 1.83752L46.1375 5.30001C46.1025 5.39451 46.0406 5.47675 45.9596 5.53669C45.8786 5.59662 45.7819 5.63166 45.6813 5.63751L41.9937 5.87501C41.5125 5.90626 41.325 6.52501 41.6937 6.83126L44.5188 9.18751C44.5977 9.2528 44.6566 9.33907 44.6887 9.43638C44.7208 9.53368 44.7247 9.63807 44.7 9.73751L43.8563 13.0625C43.7125 13.625 44.3125 14.0813 44.7938 13.775L47.725 11.9188C47.8072 11.8665 47.9026 11.8387 48 11.8387C48.0974 11.8387 48.1928 11.8665 48.275 11.9188Z" fill="#1A1A1A"/>
<path d="M48.275 11.9188L51.425 13.9188C51.8312 14.175 52.3312 13.7938 52.2125 13.325L51.3 9.73751C51.2753 9.63807 51.2793 9.53368 51.3113 9.43638C51.3434 9.33907 51.4023 9.2528 51.4813 9.18751L54.3062 6.83126C54.675 6.52501 54.4875 5.90626 54.0062 5.87501L50.3188 5.63751C50.2181 5.63166 50.1214 5.59662 50.0404 5.53669C49.9594 5.47675 49.8975 5.39451 49.8625 5.30001L48.4875 1.83752C48.4511 1.73745 48.3848 1.65102 48.2976 1.58994C48.2104 1.52886 48.1065 1.49609 48 1.49609C47.8935 1.49609 47.7896 1.52886 47.7024 1.58994C47.6152 1.65102 47.5489 1.73745 47.5125 1.83752L46.1375 5.30001C46.1025 5.39451 46.0406 5.47675 45.9596 5.53669C45.8786 5.59662 45.7819 5.63166 45.6813 5.63751L41.9937 5.87501C41.5125 5.90626 41.325 6.52501 41.6937 6.83126L44.5188 9.18751C44.5977 9.2528 44.6566 9.33907 44.6887 9.43638C44.7208 9.53368 44.7247 9.63807 44.7 9.73751L43.8563 13.0625C43.7125 13.625 44.3125 14.0813 44.7938 13.775L47.725 11.9188C47.8072 11.8665 47.9026 11.8387 48 11.8387C48.0974 11.8387 48.1928 11.8665 48.275 11.9188ZM48.275 11.9188V11.9188Z" stroke="#1A1A1A" stroke-linecap="round" stroke-linejoin="round"/>
<path d="M68.275 11.9188L71.425 13.9188C71.8312 14.175 72.3312 13.7938 72.2125 13.325L71.3 9.73751C71.2753 9.63807 71.2793 9.53368 71.3113 9.43638C71.3434 9.33907 71.4023 9.2528 71.4813 9.18751L74.3062 6.83126C74.675 6.52501 74.4875 5.90626 74.0062 5.87501L70.3188 5.63751C70.2181 5.63166 70.1214 5.59662 70.0404 5.53669C69.9594 5.47675 69.8975 5.39451 69.8625 5.30001L68.4875 1.83752C68.4511 1.73745 68.3848 1.65102 68.2976 1.58994C68.2104 1.52886 68.1065 1.49609 68 1.49609C67.8935 1.49609 67.7896 1.52886 67.7024 1.58994C67.6152 1.65102 67.5489 1.73745 67.5125 1.83752L66.1375 5.30001C66.1025 5.39451 66.0406 5.47675 65.9596 5.53669C65.8786 5.59662 65.7819 5.63166 65.6813 5.63751L61.9937 5.87501C61.5125 5.90626 61.325 6.52501 61.6937 6.83126L64.5188 9.18751C64.5977 9.2528 64.6566 9.33907 64.6887 9.43638C64.7208 9.53368 64.7247 9.63807 64.7 9.73751L63.8563 13.0625C63.7125 13.625 64.3125 14.0813 64.7938 13.775L67.725 11.9188C67.8072 11.8665 67.9026 11.8387 68 11.8387C68.0974 11.8387 68.1928 11.8665 68.275 11.9188Z" fill="#1A1A1A"/>
<path d="M68.275 11.9188L71.425 13.9188C71.8312 14.175 72.3312 13.7938 72.2125 13.325L71.3 9.73751C71.2753 9.63807 71.2793 9.53368 71.3113 9.43638C71.3434 9.33907 71.4023 9.2528 71.4813 9.18751L74.3062 6.83126C74.675 6.52501 74.4875 5.90626 74.0062 5.87501L70.3188 5.63751C70.2181 5.63166 70.1214 5.59662 70.0404 5.53669C69.9594 5.47675 69.8975 5.39451 69.8625 5.30001L68.4875 1.83752C68.4511 1.73745 68.3848 1.65102 68.2976 1.58994C68.2104 1.52886 68.1065 1.49609 68 1.49609C67.8935 1.49609 67.7896 1.52886 67.7024 1.58994C67.6152 1.65102 67.5489 1.73745 67.5125 1.83752L66.1375 5.30001C66.1025 5.39451 66.0406 5.47675 65.9596 5.53669C65.8786 5.59662 65.7819 5.63166 65.6813 5.63751L61.9937 5.87501C61.5125 5.90626 61.325 6.52501 61.6937 6.83126L64.5188 9.18751C64.5977 9.2528 64.6566 9.33907 64.6887 9.43638C64.7208 9.53368 64.7247 9.63807 64.7 9.73751L63.8563 13.0625C63.7125 13.625 64.3125 14.0813 64.7938 13.775L67.725 11.9188C67.8072 11.8665 67.9026 11.8387 68 11.8387C68.0974 11.8387 68.1928 11.8665 68.275 11.9188ZM68.275 11.9188V11.9188Z" stroke="#1A1A1A" stroke-linecap="round" stroke-linejoin="round"/>
<path d="M92.1727 14.6688L91.7707 15.3019L91.7726 15.3031L92.1727 14.6688ZM92.9603 14.075L93.6873 13.8908L93.6871 13.8901L92.9603 14.075ZM92.0477 10.4875L91.3198 10.6681L91.3209 10.6724L92.0477 10.4875ZM92.229 9.93751L92.707 10.5155L92.7094 10.5135L92.229 9.93751ZM95.054 7.58126L94.5749 7.00429L94.5736 7.0053L95.054 7.58126ZM94.754 6.62501L94.8026 5.87659L94.8022 5.87656L94.754 6.62501ZM91.0665 6.38751L91.1147 5.63905L91.1101 5.63878L91.0665 6.38751ZM90.6102 6.05001L91.3134 5.78923C91.3115 5.78387 91.3094 5.77852 91.3073 5.77321L90.6102 6.05001ZM89.2352 2.58752L88.5304 2.84389C88.5329 2.85074 88.5355 2.85755 88.5382 2.86432L89.2352 2.58752ZM88.7477 2.24609V1.49609V2.24609ZM88.2602 2.58752L88.9573 2.86432C88.96 2.85755 88.9626 2.85074 88.9651 2.84389L88.2602 2.58752ZM86.8852 6.05001L86.1882 5.77321C86.1861 5.77852 86.184 5.78387 86.182 5.78923L86.8852 6.05001ZM86.429 6.38751L86.3854 5.63876L86.3808 5.63906L86.429 6.38751ZM82.7415 6.62501L82.6933 5.87656L82.6929 5.87659L82.7415 6.62501ZM82.4415 7.58126L82.9219 7.0053L82.9207 7.00429L82.4415 7.58126ZM85.2665 9.93751L84.7861 10.5135L84.7886 10.5155L85.2665 9.93751ZM85.4477 10.4875L86.1747 10.672L86.1757 10.6681L85.4477 10.4875ZM84.604 13.8125L85.3306 13.9982L85.331 13.997L84.604 13.8125ZM85.5415 14.525L85.1402 13.8914L85.1388 13.8923L85.5415 14.525ZM88.4727 12.6688L88.874 13.3024L88.8752 13.3017L88.4727 12.6688ZM88.7477 12.5887V11.8387V12.5887ZM89.0227 12.6688L88.6203 13.3017L88.6207 13.3019L89.0227 12.6688ZM88.6207 13.3019L91.7707 15.3019L92.5748 14.0356L89.4247 12.0356L88.6207 13.3019ZM91.7726 15.3031C92.7974 15.9495 93.9591 14.9636 93.6873 13.8908L92.2332 14.2592C92.2126 14.1778 92.2514 14.0907 92.3106 14.0459C92.3395 14.024 92.3806 14.0054 92.4324 14.0018C92.4889 13.9979 92.5397 14.0135 92.5729 14.0344L91.7726 15.3031ZM93.6871 13.8901L92.7746 10.3026L91.3209 10.6724L92.2334 14.2599L93.6871 13.8901ZM92.7757 10.3069C92.7851 10.3446 92.7836 10.3842 92.7714 10.4211L91.3467 9.95163C91.2704 10.1832 91.2611 10.4315 91.3198 10.6681L92.7757 10.3069ZM92.7714 10.4211C92.7593 10.458 92.7369 10.4908 92.707 10.5155L91.7511 9.35951C91.5632 9.51485 91.423 9.72011 91.3467 9.95163L92.7714 10.4211ZM92.7094 10.5135L95.5344 8.15722L94.5736 7.0053L91.7486 9.36155L92.7094 10.5135ZM95.5332 8.15823C96.3946 7.44284 95.9981 5.95422 94.8026 5.87659L94.7054 7.37344C94.6627 7.37066 94.6126 7.35196 94.5717 7.31735C94.5346 7.28606 94.5153 7.2509 94.5063 7.22177C94.4889 7.16556 94.4978 7.06833 94.5749 7.00429L95.5332 8.15823ZM94.8022 5.87656L91.1147 5.63906L91.0183 7.13596L94.7058 7.37346L94.8022 5.87656ZM91.1101 5.63878C91.1549 5.64139 91.198 5.657 91.2341 5.68372L90.3421 6.88965C90.5403 7.03624 90.7768 7.12193 91.0229 7.13625L91.1101 5.63878ZM91.2341 5.68372C91.2703 5.71044 91.2978 5.7471 91.3134 5.78923L89.907 6.31079C89.9927 6.54191 90.1439 6.74305 90.3421 6.88965L91.2341 5.68372ZM91.3073 5.77321L89.9323 2.31071L88.5382 2.86432L89.9132 6.32682L91.3073 5.77321ZM89.9401 2.33114C89.851 2.08641 89.6889 1.875 89.4756 1.72562L88.6151 2.95426C88.5762 2.92703 88.5466 2.8885 88.5304 2.84389L89.9401 2.33114ZM89.4756 1.72562C89.2623 1.57623 89.0082 1.49609 88.7477 1.49609V2.99609C88.7003 2.99609 88.654 2.98149 88.6151 2.95426L89.4756 1.72562ZM88.7477 1.49609C88.4873 1.49609 88.2332 1.57623 88.0199 1.72562L88.8804 2.95426C88.8415 2.98149 88.7952 2.99609 88.7477 2.99609V1.49609ZM88.0199 1.72562C87.8066 1.875 87.6444 2.08641 87.5554 2.33114L88.9651 2.84389C88.9488 2.8885 88.9193 2.92703 88.8804 2.95426L88.0199 1.72562ZM87.5632 2.31071L86.1882 5.77321L87.5823 6.32682L88.9573 2.86432L87.5632 2.31071ZM86.182 5.78923C86.1977 5.7471 86.2252 5.71044 86.2613 5.68372L87.1534 6.88965C87.3516 6.74305 87.5027 6.54191 87.5884 6.31079L86.182 5.78923ZM86.2613 5.68372C86.2975 5.65701 86.3406 5.64139 86.3854 5.63878L86.4726 7.13625C86.7186 7.12193 86.9552 7.03624 87.1534 6.88965L86.2613 5.68372ZM86.3808 5.63906L82.6933 5.87656L82.7897 7.37346L86.4772 7.13596L86.3808 5.63906ZM82.6929 5.87659C81.4974 5.95422 81.1009 7.44284 81.9623 8.15823L82.9207 7.00429C82.9978 7.06833 83.0066 7.16556 82.9892 7.22177C82.9802 7.2509 82.9609 7.28606 82.9239 7.31735C82.8829 7.35196 82.8329 7.37066 82.7901 7.37344L82.6929 5.87659ZM81.9611 8.15722L84.7861 10.5135L85.7469 9.36155L82.9219 7.0053L81.9611 8.15722ZM84.7886 10.5155C84.7586 10.4908 84.7363 10.458 84.7241 10.4211L86.1487 9.95163C86.0724 9.72011 85.9323 9.51485 85.7444 9.35951L84.7886 10.5155ZM84.7241 10.4211C84.7119 10.3842 84.7105 10.3446 84.7198 10.3069L86.1757 10.6681C86.2344 10.4315 86.225 10.1832 86.1487 9.95163L84.7241 10.4211ZM84.7208 10.303L83.877 13.628L85.331 13.997L86.1747 10.672L84.7208 10.303ZM83.8773 13.6268C83.5807 14.7874 84.8374 15.8621 85.9441 15.1578L85.1388 13.8923C85.1545 13.8823 85.1863 13.8712 85.224 13.8738C85.2569 13.8761 85.2793 13.8876 85.2922 13.8975C85.3053 13.9074 85.3174 13.922 85.3251 13.9427C85.3342 13.9672 85.3329 13.9892 85.3306 13.9982L83.8773 13.6268ZM85.9427 15.1587L88.874 13.3024L88.0715 12.0351L85.1402 13.8914L85.9427 15.1587ZM88.8752 13.3017C88.8371 13.3259 88.7929 13.3387 88.7477 13.3387V11.8387C88.5078 11.8387 88.2728 11.9071 88.0703 12.0359L88.8752 13.3017ZM88.7477 13.3387C88.7026 13.3387 88.6584 13.3259 88.6203 13.3017L89.4252 12.0359C89.2227 11.9071 88.9877 11.8387 88.7477 11.8387V13.3387Z" fill="#6E6E6E"/>
</svg>
