<svg width="26" height="25" viewBox="0 0 26 25" fill="none" xmlns="http://www.w3.org/2000/svg">
<path d="M13 20.7008L13.2021 21.1594C13.2019 21.1595 13.2017 21.1596 13.2015 21.1597L13.2021 21.1594L13 20.7008ZM13 20.7008L12.7979 21.1594C12.7981 21.1595 12.7983 21.1596 12.7985 21.1597L12.7979 21.1594L13 20.7008ZM14.2992 1.74907C13.7192 0.753371 12.2808 0.753365 11.7008 1.74907L8.4678 7.29983L2.18966 8.65934C1.06348 8.90321 0.618966 10.2713 1.38673 11.1305L5.66675 15.9206L5.01967 22.3116C4.90359 23.458 6.06733 24.3035 7.12178 23.8388L13 21.2485L18.8782 23.8388C19.9327 24.3035 21.0964 23.458 20.9803 22.3116L20.3333 15.9206L24.6133 11.1305C25.381 10.2713 24.9365 8.90321 23.8103 8.65934L17.5322 7.29983L14.2992 1.74907ZM20.1861 16.0853L20.1865 16.0848C20.1864 16.085 20.1862 16.0851 20.1861 16.0853L19.8124 15.7513L20.1861 16.0853Z" stroke="#F4B719" stroke-width="2"/>
</svg>
