<svg width="24" height="24" viewBox="0 0 24 24" fill="none" xmlns="http://www.w3.org/2000/svg">
<path d="M22.1801 1.8412C19.7261 -0.613735 15.7746 -0.613735 13.3621 1.8412C13.071 2.13247 12.8214 2.46534 12.5719 2.79821C12.4055 3.04787 12.2807 3.25591 12.1559 3.50557C11.8648 4.0881 11.6568 4.71223 11.5736 5.33637C14.8179 6.62626 17.3968 9.20602 18.6862 12.4515C19.3101 12.3683 19.934 12.1603 20.5163 11.869C20.7659 11.7442 21.0155 11.6194 21.2235 11.4529C21.5562 11.2449 21.8474 10.9952 22.1385 10.704C24.5926 8.29062 24.6342 4.33775 22.1801 1.8412C22.1801 1.88281 22.1801 1.88281 22.1801 1.8412ZM17.8543 12.5764L5.08489 22.3545C4.21141 23.0203 3.04678 23.0203 2.1733 22.3961L0.675906 23.894C0.509529 24.0605 0.21837 24.0189 0.093587 23.8524C-0.0311957 23.686 -0.0311957 23.478 0.093587 23.3115L1.59098 21.8136C0.967066 20.9398 1.00866 19.7747 1.63257 18.901L11.4072 6.12695C14.3188 7.37522 16.6481 9.70533 17.8543 12.5764ZM14.4852 10.7872C14.4852 10.4543 14.3604 10.1214 14.1108 9.91338C13.6117 9.45568 12.8214 9.45568 12.3639 9.91338C11.8648 10.4127 11.8648 11.2033 12.3639 11.661C12.863 12.1603 13.6533 12.1603 14.1108 11.661C14.3604 11.4529 14.4852 11.12 14.4852 10.7872Z" fill="#040E24"/>
</svg>
