<svg width="60" height="60" viewBox="0 0 60 60" fill="none" xmlns="http://www.w3.org/2000/svg">
<path fill-rule="evenodd" clip-rule="evenodd" d="M17.6731 30.2744C17.6731 30.5027 17.7638 30.7217 17.9253 30.8831C18.0867 31.0446 18.3057 31.1353 18.534 31.1353L38.8391 31.1353L33.4206 36.552C33.259 36.7137 33.1682 36.9329 33.1682 37.1615C33.1682 37.3901 33.259 37.6094 33.4206 37.7711C33.5823 37.9327 33.8015 38.0235 34.0301 38.0235C34.2588 38.0235 34.478 37.9327 34.6397 37.7711L41.5268 30.8839C41.607 30.8039 41.6706 30.7089 41.714 30.6043C41.7574 30.4997 41.7798 30.3876 41.7798 30.2744C41.7798 30.1611 41.7574 30.049 41.714 29.9444C41.6706 29.8398 41.607 29.7448 41.5268 29.6648L34.6397 22.7777C34.5596 22.6976 34.4646 22.6341 34.36 22.5908C34.2554 22.5475 34.1433 22.5252 34.0301 22.5252C33.8015 22.5252 33.5823 22.616 33.4206 22.7777C33.259 22.9393 33.1682 23.1586 33.1682 23.3872C33.1682 23.6158 33.259 23.835 33.4206 23.9967L38.8391 29.4135L18.534 29.4135C18.3057 29.4135 18.0867 29.5042 17.9253 29.6656C17.7638 29.8271 17.6731 30.046 17.6731 30.2744Z" fill="white"/>
<circle cx="30" cy="30" r="29" transform="matrix(-1 0 0 1 60 0)" stroke="white" stroke-width="2"/>
</svg>
