<svg width="26" height="25" viewBox="0 0 26 25" fill="none" xmlns="http://www.w3.org/2000/svg">
<path d="M13 20.7008L13.2021 21.1594C13.2019 21.1594 13.2017 21.1595 13.2016 21.1596L13.2021 21.1594L13 20.7008ZM13 20.7008L12.7979 21.1594C12.7981 21.1594 12.7983 21.1595 12.7984 21.1596L12.7979 21.1594L13 20.7008ZM14.2992 1.7489C13.7192 0.753191 12.2808 0.753185 11.7008 1.7489L8.46778 7.29968L2.18961 8.6592C1.06342 8.90307 0.618908 10.2711 1.38667 11.1304L5.66671 15.9205L5.01963 22.3115C4.90355 23.4579 6.0673 24.3034 7.12175 23.8388L13 21.2484L18.8783 23.8388C19.9327 24.3034 21.0964 23.4579 20.9804 22.3115L20.3333 15.9205L24.6133 11.1304C25.3811 10.2711 24.9366 8.90307 23.8104 8.6592L17.5322 7.29968L14.2992 1.7489ZM20.1861 16.0852L20.1865 16.0847C20.1864 16.0849 20.1863 16.085 20.1861 16.0852L19.8124 15.7512L20.1861 16.0852Z" stroke="#F4B719" stroke-width="2"/>
</svg>
