<svg width="26" height="25" viewBox="0 0 26 25" fill="none" xmlns="http://www.w3.org/2000/svg">
<path d="M13 20.7009L13.2021 21.1596C13.2019 21.1596 13.2017 21.1597 13.2016 21.1598L13.2021 21.1596L13 20.7009ZM13 20.7009L12.7979 21.1596C12.7981 21.1596 12.7983 21.1597 12.7984 21.1598L12.7979 21.1596L13 20.7009ZM14.2992 1.74891C13.7192 0.753198 12.2808 0.753192 11.7008 1.74892L8.46774 7.29975L2.18951 8.65928C1.06331 8.90315 0.618791 10.2712 1.38656 11.1305L5.66665 15.9206L5.01955 22.3117C4.90348 23.4581 6.06723 24.3037 7.12169 23.839L13 21.2486L18.8783 23.839C19.9328 24.3036 21.0965 23.4581 20.9804 22.3117L20.3334 15.9206L24.6134 11.1305C25.3812 10.2712 24.9367 8.90315 23.8105 8.65928L17.5323 7.29975L14.2992 1.74891ZM20.1862 16.0853L20.1866 16.0849C20.1865 16.085 20.1863 16.0852 20.1862 16.0853L19.8125 15.7514L20.1862 16.0853Z" stroke="#F4B719" stroke-width="2"/>
</svg>
