<svg width="20" height="20" viewBox="0 0 20 20" fill="none" xmlns="http://www.w3.org/2000/svg">
<path d="M11.0234 13.539L10.6983 14.2149L10.7025 14.2169L11.0234 13.539ZM11.6406 13.4922L11.224 12.8686L11.221 12.8706L11.6406 13.4922ZM13.5938 12.1875L14.0104 12.8112L14.0147 12.8082L13.5938 12.1875ZM14.1875 12.1328L13.887 12.82L13.8915 12.822L14.1875 12.1328ZM17.8438 13.7031L17.5478 14.3923L17.5556 14.3955L17.8438 13.7031ZM18.2188 14.3515L17.4749 14.256L17.4748 14.2562L18.2188 14.3515ZM14.5 17.625V18.375H14.5002L14.5 17.625ZM3.875 7.00003L3.125 6.99986V7.00003H3.875ZM7.14844 3.28128L7.24375 4.0252L7.24399 4.02517L7.14844 3.28128ZM7.79687 3.65628L7.10442 3.94448L7.10752 3.95172L7.79687 3.65628ZM9.36719 7.32034L8.67782 7.61579L8.67927 7.61912L9.36719 7.32034ZM9.32031 7.90628L9.94704 8.31834L9.95198 8.31063L9.32031 7.90628ZM8.01562 9.89066L7.38893 9.47861L7.38598 9.48317L8.01562 9.89066ZM7.97656 10.5L7.30004 10.8238L7.30154 10.8269L7.97656 10.5ZM7.30154 10.8269C8.01854 12.3076 9.21581 13.5017 10.6983 14.2149L11.3486 12.8632C10.1715 12.297 9.22087 11.3488 8.65158 10.1732L7.30154 10.8269ZM10.7025 14.2169C10.9183 14.3191 11.157 14.3633 11.395 14.3452L11.2814 12.8496C11.3031 12.8479 11.3248 12.8519 11.3444 12.8612L10.7025 14.2169ZM11.395 14.3452C11.6331 14.3271 11.8624 14.2474 12.0603 14.1138L11.221 12.8706C11.239 12.8585 11.2598 12.8512 11.2814 12.8496L11.395 14.3452ZM12.0572 14.1158L14.0104 12.8112L13.1771 11.5639L11.224 12.8686L12.0572 14.1158ZM14.0147 12.8082C13.9962 12.8208 13.9747 12.8285 13.9524 12.8306L13.8148 11.3369C13.5848 11.3581 13.3639 11.4372 13.1728 11.5668L14.0147 12.8082ZM13.9524 12.8306C13.93 12.8326 13.9075 12.829 13.887 12.82L14.488 11.4457C14.2764 11.3531 14.0448 11.3157 13.8148 11.3369L13.9524 12.8306ZM13.8915 12.822L17.5478 14.3922L18.1397 13.014L14.4835 11.4437L13.8915 12.822ZM17.5556 14.3955C17.5287 14.3843 17.5062 14.3646 17.4916 14.3394L18.7901 13.5885C18.64 13.3289 18.4088 13.1259 18.1319 13.0107L17.5556 14.3955ZM17.4916 14.3394C17.477 14.3142 17.4712 14.2849 17.4749 14.256L18.9626 14.4471C19.0008 14.1497 18.9402 13.848 18.7901 13.5885L17.4916 14.3394ZM17.4748 14.2562C17.3821 14.9798 17.0289 15.6448 16.4814 16.1268L17.4725 17.2528C18.2938 16.5298 18.8236 15.5322 18.9627 14.4469L17.4748 14.2562ZM16.4814 16.1268C15.9338 16.6088 15.2293 16.8748 14.4998 16.875L14.5002 18.375C15.5944 18.3747 16.6511 17.9758 17.4725 17.2528L16.4814 16.1268ZM14.5 16.875C11.881 16.875 9.36924 15.8346 7.51732 13.9827L6.45666 15.0433C8.58989 17.1765 11.4832 18.375 14.5 18.375V16.875ZM7.51732 13.9827C5.6654 12.1308 4.625 9.61904 4.625 7.00003H3.125C3.125 10.0169 4.32343 12.9101 6.45666 15.0433L7.51732 13.9827ZM4.625 7.0002C4.62516 6.2707 4.89113 5.56625 5.37314 5.01867L4.24721 4.02757C3.5242 4.84894 3.12525 5.90561 3.125 6.99986L4.625 7.0002ZM5.37314 5.01867C5.85515 4.47109 6.52016 4.1179 7.24375 4.0252L7.05313 2.53736C5.96774 2.67642 4.97022 3.2062 4.24721 4.02757L5.37314 5.01867ZM7.24399 4.02517C7.2151 4.02888 7.1858 4.02299 7.16058 4.00841L7.91152 2.70991C7.65197 2.55981 7.35027 2.49919 7.05288 2.53739L7.24399 4.02517ZM7.16058 4.00841C7.13537 3.99382 7.11565 3.97136 7.10445 3.94447L8.4893 3.36808C8.37408 3.09128 8.17107 2.86001 7.91152 2.70991L7.16058 4.00841ZM7.10752 3.95172L8.67783 7.61578L10.0566 7.0249L8.48623 3.36084L7.10752 3.95172ZM8.67927 7.61912C8.6711 7.60032 8.66769 7.57979 8.66932 7.55936L10.1645 7.67898C10.1825 7.45418 10.1449 7.22841 10.0551 7.02156L8.67927 7.61912ZM8.66932 7.55936C8.67096 7.53892 8.67759 7.5192 8.68864 7.50194L9.95198 8.31063C10.0736 8.12069 10.1466 7.90377 10.1645 7.67898L8.66932 7.55936ZM8.69363 7.49425L7.38894 9.47862L8.64231 10.3027L9.94699 8.31831L8.69363 7.49425ZM7.38598 9.48317C7.25819 9.68062 7.18319 9.90756 7.16815 10.1423L8.66507 10.2382C8.66371 10.2596 8.65689 10.2802 8.64527 10.2981L7.38598 9.48317ZM7.16815 10.1423C7.1531 10.377 7.19851 10.6116 7.30004 10.8238L8.65308 10.1763C8.66231 10.1956 8.66644 10.2169 8.66507 10.2382L7.16815 10.1423Z" fill="#6E6E6E"/>
</svg>
