<svg width="26" height="25" viewBox="0 0 26 25" fill="none" xmlns="http://www.w3.org/2000/svg">
<path d="M13 20.7009L13.2021 21.1596C13.2019 21.1596 13.2017 21.1597 13.2016 21.1598L13.2021 21.1596L13 20.7009ZM13 20.7009L12.7979 21.1596C12.7981 21.1596 12.7983 21.1597 12.7984 21.1598L12.7979 21.1596L13 20.7009ZM14.2992 1.74914C13.7192 0.753434 12.2808 0.753428 11.7008 1.74914L8.46779 7.29991L2.18963 8.65942C1.06345 8.90329 0.618937 10.2714 1.3867 11.1306L5.66673 15.9207L5.01965 22.3117C4.90357 23.4581 6.06732 24.3036 7.12176 23.839L13 21.2486L18.8782 23.839C19.9327 24.3036 21.0964 23.4581 20.9804 22.3117L20.3333 15.9207L24.6133 11.1306C25.3811 10.2714 24.9366 8.90329 23.8104 8.65942L17.5322 7.29991L14.2992 1.74914ZM20.1861 16.0854L20.1865 16.0849C20.1864 16.0851 20.1862 16.0852 20.1861 16.0854L19.8124 15.7514L20.1861 16.0854Z" stroke="#F4B719" stroke-width="2"/>
</svg>
