<svg width="20" height="20" viewBox="0 0 20 20" fill="none" xmlns="http://www.w3.org/2000/svg">
<path d="M1.89189 2.16216H18.1081V0H1.89189V2.16216ZM18.1081 2.16216C17.9588 2.16216 17.8378 2.04116 17.8378 1.89189H20C20 0.847028 19.153 0 18.1081 0V2.16216ZM17.8378 1.89189V18.1081H20V1.89189H17.8378ZM17.8378 18.1081C17.8378 17.9588 17.9588 17.8378 18.1081 17.8378V20C19.153 20 20 19.153 20 18.1081H17.8378ZM18.1081 17.8378H1.89189V20H18.1081V17.8378ZM1.89189 17.8378C2.04116 17.8378 2.16216 17.9588 2.16216 18.1081H0C0 19.153 0.847028 20 1.89189 20V17.8378ZM2.16216 18.1081V1.89189H0V18.1081H2.16216ZM2.16216 1.89189C2.16216 2.04116 2.04116 2.16216 1.89189 2.16216V0C0.847028 0 0 0.847028 0 1.89189H2.16216Z" fill="#1A1A1A"/>
<path d="M18.1545 14.0076C18.5766 14.4298 19.2612 14.4298 19.6833 14.0076C20.1055 13.5854 20.1055 12.9009 19.6833 12.4787L18.1545 14.0076ZM14.6318 8.95599L13.8615 9.71457L13.8673 9.72042L14.6318 8.95599ZM13.4763 8.95599L14.2408 9.72045L14.2466 9.71455L13.4763 8.95599ZM8.95607 13.4763L8.19161 12.7118L8.1858 12.7177L8.95607 13.4763ZM7.80067 13.4763L8.57096 12.7177L8.5651 12.7118L7.80067 13.4763ZM5.71283 11.3884L4.94253 12.147L4.94839 12.1529L5.71283 11.3884ZM4.55743 11.3884L5.32188 12.1529L5.3277 12.147L4.55743 11.3884ZM0.31664 14.1003C-0.105547 14.5225 -0.105547 15.207 0.31664 15.6292C0.738829 16.0514 1.42333 16.0514 1.84552 15.6292L0.31664 14.1003ZM19.6833 12.4787L15.3962 8.19155L13.8673 9.72042L18.1545 14.0076L19.6833 12.4787ZM15.402 8.19742C15.2259 8.01867 15.0161 7.87671 14.7847 7.77982L13.9496 9.77421C13.9166 9.76037 13.8866 9.74009 13.8615 9.71455L15.402 8.19742ZM14.7847 7.77982C14.5533 7.68292 14.305 7.63302 14.054 7.63302V9.79518C14.0181 9.79518 13.9827 9.78805 13.9496 9.77421L14.7847 7.77982ZM14.054 7.63302C13.8031 7.63302 13.5548 7.68292 13.3233 7.77982L14.1585 9.77421C14.1254 9.78805 14.0899 9.79518 14.054 9.79518V7.63302ZM13.3233 7.77982C13.092 7.87671 12.8821 8.01867 12.706 8.19742L14.2466 9.71455C14.2215 9.74009 14.1914 9.76037 14.1585 9.77421L13.3233 7.77982ZM12.7119 8.19155L8.19163 12.7118L9.72051 14.2407L14.2407 9.72042L12.7119 8.19155ZM8.1858 12.7177C8.21095 12.6921 8.24093 12.6719 8.27399 12.658L9.10905 14.6524C9.34046 14.5555 9.5503 14.4136 9.72633 14.2348L8.1858 12.7177ZM8.27399 12.658C8.30704 12.6442 8.34252 12.6371 8.37837 12.6371V14.7992C8.62925 14.7992 8.87763 14.7493 9.10905 14.6524L8.27399 12.658ZM8.37837 12.6371C8.41422 12.6371 8.4497 12.6442 8.48275 12.658L7.64769 14.6524C7.8791 14.7493 8.12748 14.7992 8.37837 14.7992V12.6371ZM8.48275 12.658C8.51581 12.6719 8.54578 12.6921 8.57094 12.7177L7.0304 14.2348C7.20643 14.4136 7.41627 14.5555 7.64769 14.6524L8.48275 12.658ZM8.5651 12.7118L6.47727 10.624L4.94839 12.1529L7.03623 14.2407L8.5651 12.7118ZM6.48309 10.6298C6.30706 10.4511 6.09722 10.3091 5.86581 10.2122L5.03075 12.2066C4.99769 12.1928 4.96771 12.1725 4.94256 12.147L6.48309 10.6298ZM5.86581 10.2122C5.63439 10.1154 5.38601 10.0654 5.13513 10.0654V12.2276C5.09928 12.2276 5.0638 12.2205 5.03075 12.2066L5.86581 10.2122ZM5.13513 10.0654C4.88424 10.0654 4.63586 10.1154 4.40445 10.2122L5.23951 12.2066C5.20646 12.2205 5.17098 12.2276 5.13513 12.2276V10.0654ZM4.40445 10.2122C4.17303 10.3091 3.96319 10.4511 3.78716 10.6298L5.3277 12.147C5.30254 12.1725 5.27257 12.1928 5.23951 12.2066L4.40445 10.2122ZM3.79299 10.624L0.31664 14.1003L1.84552 15.6292L5.32186 12.1529L3.79299 10.624Z" fill="#1A1A1A"/>
<path d="M6.08115 6.48649C6.75284 6.48649 7.29736 5.94197 7.29736 5.27027C7.29736 4.59858 6.75284 4.05406 6.08115 4.05406C5.40945 4.05406 4.86493 4.59858 4.86493 5.27027C4.86493 5.94197 5.40945 6.48649 6.08115 6.48649Z" fill="#1A1A1A"/>
</svg>
