<svg width="24" height="24" viewBox="0 0 24 24" fill="none" xmlns="http://www.w3.org/2000/svg">
<path d="M21.6339 9.00492C22.122 8.51676 22.122 7.72531 21.6339 7.23715C21.1457 6.74899 20.3543 6.74899 19.8661 7.23715L21.6339 9.00492ZM13.25 15.621L12.3661 16.5049C12.8543 16.9931 13.6457 16.9931 14.1339 16.5049L13.25 15.621ZM6.63388 7.23715C6.14573 6.74899 5.35427 6.74899 4.86612 7.23715C4.37796 7.72531 4.37796 8.51676 4.86612 9.00492L6.63388 7.23715ZM19.8661 7.23715L12.3661 14.7372L14.1339 16.5049L21.6339 9.00492L19.8661 7.23715ZM14.1339 14.7372L6.63388 7.23715L4.86612 9.00492L12.3661 16.5049L14.1339 14.7372Z" fill="#6E6E6E"/>
</svg>
