<svg width="24" height="24" viewBox="0 0 24 24" fill="none" xmlns="http://www.w3.org/2000/svg">
<path d="M22.0164 5.70244C21.9845 5.50338 21.8903 5.32351 21.7506 5.19497C21.611 5.06643 21.435 4.9976 21.2542 5.00078H2.75023C2.56855 4.9921 2.39008 5.05633 2.24704 5.18188C2.10401 5.30742 2.00583 5.48601 1.97023 5.68539L0.0138846 16.912C-0.00744412 17.0352 -0.00416597 17.1622 0.0234847 17.2838C0.0511353 17.4054 0.102476 17.5188 0.173838 17.6156C0.245199 17.7125 0.33482 17.7906 0.436296 17.8443C0.537772 17.8979 0.648597 17.9259 0.760852 17.9261H3.93165L3.99009 18.2982C4.02202 18.4973 4.11622 18.6772 4.25586 18.8057C4.39549 18.9342 4.57145 19.0031 4.7523 18.9999H23.2258C23.3383 19.0019 23.4498 18.976 23.5523 18.9241C23.6548 18.8722 23.7457 18.7955 23.8186 18.6997C23.8915 18.6038 23.9444 18.4911 23.9737 18.3696C24.003 18.2482 24.0079 18.1209 23.988 17.9971L22.0164 5.70244ZM1.69075 16.2131L2.72228 10.3044L3.66234 16.2131H1.69075ZM18.3908 12.4406H7.61568V10.7362H18.3883L18.3908 12.4406Z" fill="white"/>
</svg>
