<svg width="24" height="24" viewBox="0 0 24 24" fill="none" xmlns="http://www.w3.org/2000/svg">
<path d="M3.64076 8.90355C3.68302 8.91279 3.72528 8.92202 3.76151 8.93126C3.79774 8.94511 3.83396 8.96359 3.86415 8.98668C3.89434 9.00515 3.92453 9.02362 3.95472 9.04671C3.98491 9.0698 4.00302 9.10213 4.02717 9.12522C4.04528 9.15293 4.06944 9.18063 4.08151 9.20834C4.09359 9.23605 4.09962 9.27299 4.10566 9.3007C4.10566 9.32379 4.12377 9.34226 4.12377 9.36997V14.5375C4.12377 15.1425 4.76981 15.6366 5.56076 15.6366C6.3517 15.6366 6.99774 15.1425 6.99774 14.5375V10.0488C6.99774 9.87796 7.11245 9.72556 7.29359 9.63782C7.47472 9.55007 7.70415 9.54084 7.90944 9.61473C8.78491 9.93799 9.73283 10.1042 10.7351 10.1042C11.0853 10.1042 11.3691 10.3213 11.3691 10.5891V12.1685C11.3691 12.7735 12.0151 13.2676 12.806 13.2676C13.597 13.2676 14.2491 12.7735 14.2491 12.1685V9.5824C14.2491 9.5824 14.2551 9.55469 14.2551 9.54084C14.2611 9.50851 14.2672 9.47157 14.2793 9.44386C14.2913 9.41615 14.3094 9.38383 14.3276 9.35612C14.3457 9.33303 14.3638 9.30994 14.3879 9.28223C14.4121 9.25914 14.4423 9.23605 14.4785 9.21296C14.4966 9.20372 14.5026 9.18987 14.5208 9.18063C14.5932 9.14369 14.6596 9.10213 14.7321 9.06056L14.8709 8.98206C14.8709 8.98206 14.9253 8.95897 14.9615 8.94511C14.9796 8.93588 14.9977 8.92664 15.0219 8.92202C15.0943 8.90355 15.1668 8.8897 15.2453 8.8897C15.3298 8.8897 15.4023 8.90355 15.4808 8.92202C15.4928 8.92664 15.4989 8.92664 15.5049 8.93126C15.523 8.93588 15.5472 8.9405 15.5653 8.94511C16.1268 9.18525 16.7849 9.31456 17.4611 9.31456C18.5298 9.31456 19.5321 8.99591 20.2928 8.41866C21.0596 7.83679 21.4823 7.06558 21.4823 6.23895C21.4823 4.54414 19.683 3.15873 17.4611 3.15873C17.437 3.15873 17.4128 3.15873 17.3826 3.16335C17.3645 3.16335 17.3464 3.15873 17.3283 3.15873C17.3162 3.16335 17.2981 3.16797 17.286 3.16797C17.2438 3.16797 17.2015 3.16335 17.1593 3.15411H17.1291C17.0566 3.14026 16.9902 3.11717 16.9359 3.08484C16.9177 3.0756 16.9057 3.06175 16.8936 3.05251C16.8513 3.02942 16.8151 2.9971 16.7849 2.96477C16.7668 2.95092 16.7547 2.93706 16.7426 2.92321C16.7366 2.91397 16.7245 2.90474 16.7185 2.8955C15.6317 1.13603 13.2891 0 10.7472 0C8.37434 0 6.18264 0.969785 5.0234 2.53991C5.01132 2.55839 4.99321 2.56762 4.98113 2.57686C4.94491 2.6138 4.90868 2.65075 4.86642 2.67384C4.84227 2.69231 4.81208 2.70154 4.78189 2.71078C4.73962 2.72925 4.69736 2.74772 4.6551 2.75696C4.61283 2.7662 4.56453 2.7662 4.51623 2.77081C4.48604 2.77081 4.46189 2.78005 4.42566 2.78005C4.29283 2.77081 4.15396 2.7662 4.02113 2.7662C1.80528 2.7662 0 4.14237 0 5.8418C0 6.69152 0.464906 7.50891 1.27396 8.08154C1.91396 8.54335 2.71094 8.82504 3.57434 8.89893C3.60453 8.90355 3.62868 8.91279 3.65887 8.91741L3.64076 8.90355Z" fill="white"/>
<path d="M23.366 10.9495H19.5743V9.9243C18.9102 10.146 18.1977 10.266 17.449 10.266C16.7668 10.266 16.1026 10.1644 15.4989 9.97972V12.1548C15.4989 13.2955 14.2853 14.2191 12.7939 14.2191C11.3026 14.2191 10.0951 13.2955 10.0951 12.1548V11.0372C9.46112 11.0003 8.8513 10.9033 8.25357 10.7509V14.5239C8.25357 15.6645 7.03998 16.5881 5.5547 16.5881C4.06942 16.5881 2.85583 15.6645 2.85583 14.5239V9.75805C2.51168 9.69802 2.18564 9.62413 1.87772 9.51791V21.0953H19.5743V20.1301H23.366C23.7162 20.1301 24 19.9131 24 19.6452V11.4298C24 11.1619 23.7162 10.9449 23.366 10.9449V10.9495ZM22.7321 18.6847C22.7321 18.9525 22.4483 19.1696 22.0981 19.1696H19.5683V11.9193H22.0981C22.4483 11.9193 22.7321 12.1363 22.7321 12.4042V18.6893V18.6847Z" fill="white"/>
<path d="M1.87772 22.55C1.87772 23.3535 2.72904 24 3.77357 24H17.6785C18.723 24 19.5743 23.3535 19.5743 22.55V22.0651H1.87772V22.55Z" fill="white"/>
</svg>
