<svg width="28" height="28" viewBox="0 0 28 28" fill="none" xmlns="http://www.w3.org/2000/svg">
<path fill-rule="evenodd" clip-rule="evenodd" d="M1.75011 14.0001C1.75011 14.2322 1.8423 14.4548 2.00644 14.6189C2.17049 14.783 2.39307 14.8751 2.62511 14.8751L23.2628 14.8751L17.7556 20.3806C17.5913 20.5449 17.499 20.7677 17.499 21.0001C17.499 21.2324 17.5913 21.4553 17.7556 21.6197C17.9199 21.7839 18.1427 21.8762 18.3751 21.8762C18.6074 21.8762 18.8303 21.7839 18.9946 21.6197L25.9945 14.6196C26.076 14.5384 26.1407 14.4418 26.1848 14.3355C26.2289 14.2292 26.2516 14.1152 26.2516 14.0001C26.2516 13.885 26.2289 13.7711 26.1848 13.6648C26.1407 13.5585 26.076 13.4619 25.9945 13.3806L18.9946 6.38067C18.9132 6.29932 18.8167 6.23479 18.7104 6.19076C18.6041 6.14673 18.4901 6.12407 18.3751 6.12407C18.1427 6.12407 17.9199 6.21637 17.7556 6.38067C17.5913 6.54497 17.499 6.76781 17.499 7.00017C17.499 7.23253 17.5913 7.45537 17.7556 7.61967L23.2628 13.1251L2.62511 13.1251C2.39307 13.1251 2.17049 13.2173 2.00644 13.3814C1.8423 13.5455 1.75011 13.7681 1.75011 14.0001Z" fill="#1065CA"/>
</svg>
