<svg width="26" height="25" viewBox="0 0 26 25" fill="none" xmlns="http://www.w3.org/2000/svg">
<path d="M13 20.7009L13.2021 21.1595C13.2019 21.1596 13.2017 21.1596 13.2015 21.1597L13.2021 21.1595L13 20.7009ZM13 20.7009L12.7979 21.1595C12.7981 21.1596 12.7983 21.1596 12.7985 21.1597L12.7979 21.1595L13 20.7009ZM14.2992 1.74908C13.7192 0.753372 12.2808 0.753366 11.7008 1.74908L8.46779 7.29984L2.18964 8.65935C1.06346 8.90322 0.618948 10.2713 1.38671 11.1305L5.66674 15.9206L5.01966 22.3116C4.90358 23.458 6.06732 24.3035 7.12177 23.8389L13 21.2485L18.8782 23.8389C19.9327 24.3035 21.0964 23.458 20.9803 22.3116L20.3333 15.9206L24.6133 11.1305C25.381 10.2713 24.9365 8.90322 23.8104 8.65935L17.5322 7.29984L14.2992 1.74908ZM20.1861 16.0853L20.1865 16.0849C20.1864 16.085 20.1862 16.0851 20.1861 16.0853L19.8124 15.7514L20.1861 16.0853Z" stroke="#F4B719" stroke-width="2"/>
</svg>
