<svg width="24" height="24" viewBox="0 0 24 24" fill="none" xmlns="http://www.w3.org/2000/svg">
<path d="M22.5366 0H1.46341C0.643902 0 0 0.923543 0 2.09896V11.7122C0 12.8876 0.643902 13.8112 1.46341 13.8112H6.52683C6.70244 13.8112 6.81951 13.6433 6.81951 13.3914V13.3494C6.81951 12.4678 7.31707 11.7542 7.93171 11.7542H16.0683C16.6829 11.7542 17.1805 12.4678 17.1805 13.3494V13.3914C17.1805 13.6433 17.2976 13.8112 17.4732 13.8112H22.5366C23.3561 13.8112 24 12.8876 24 11.7122V2.09896C24 0.923543 23.3561 0 22.5366 0ZM4.47805 3.10646H2.42927C2.25366 3.10646 2.13659 2.93855 2.13659 2.68667C2.13659 2.4348 2.25366 2.26688 2.42927 2.26688H4.47805C4.65366 2.26688 4.77073 2.4348 4.77073 2.68667C4.77073 2.93855 4.62439 3.10646 4.47805 3.10646Z" fill="#040E24"/>
<path d="M4.36361 20.8333V15.1754C4.36361 14.8723 4.14543 14.6702 3.81816 14.6702C3.49089 14.6702 3.27271 14.8723 3.27271 15.1754V20.8333C3.27271 21.1365 3.49089 21.3385 3.81816 21.3385C4.14543 21.3385 4.36361 21.0859 4.36361 20.8333Z" fill="#040E24"/>
<path d="M7.63632 20.8333V15.1754C7.63632 14.8723 7.41814 14.6702 7.09086 14.6702C6.76359 14.6702 6.54541 14.8723 6.54541 15.1754V20.8333C6.54541 21.1365 6.76359 21.3385 7.09086 21.3385C7.41814 21.3385 7.63632 21.0859 7.63632 20.8333Z" fill="#040E24"/>
<path d="M10.909 23.4948V17.8368C10.909 17.5337 10.6908 17.3317 10.3636 17.3317C10.0363 17.3317 9.81812 17.5337 9.81812 17.8368V23.4948C9.81812 23.7979 10.0363 24 10.3636 24C10.6908 24 10.909 23.7979 10.909 23.4948Z" fill="#040E24"/>
<path d="M14.1817 23.4948V17.8368C14.1817 17.5337 13.9635 17.3317 13.6363 17.3317C13.309 17.3317 13.0908 17.5337 13.0908 17.8368V23.4948C13.0908 23.7979 13.309 24 13.6363 24C13.9635 24 14.1817 23.7979 14.1817 23.4948Z" fill="#040E24"/>
<path d="M17.4544 20.8333V15.1754C17.4544 14.8723 17.2363 14.6702 16.909 14.6702C16.5817 14.6702 16.3635 14.8723 16.3635 15.1754V20.8333C16.3635 21.1365 16.5817 21.3385 16.909 21.3385C17.2363 21.3385 17.4544 21.0859 17.4544 20.8333Z" fill="#040E24"/>
<path d="M20.7271 20.8333V15.1754C20.7271 14.8723 20.509 14.6702 20.1817 14.6702C19.8544 14.6702 19.6362 14.8723 19.6362 15.1754V20.8333C19.6362 21.1365 19.8544 21.3385 20.1817 21.3385C20.509 21.3385 20.7271 21.0859 20.7271 20.8333Z" fill="#040E24"/>
</svg>
