<svg width="24" height="24" viewBox="0 0 24 24" fill="none" xmlns="http://www.w3.org/2000/svg">
<path d="M5.16526 14.0856H1.19717C1.26288 15.6823 1.72396 17.2426 2.54385 18.6428H5.89841C5.44127 17.1607 5.19475 15.6284 5.16526 14.0856Z" fill="#040E24"/>
<path d="M18.2571 7.87181H21.3574C19.9576 5.93339 17.902 4.49488 15.5232 3.78897C16.7742 4.92133 17.7126 6.32266 18.2571 7.87181Z" fill="#040E24"/>
<path d="M7.10378 7.87147H11.7794V3.34369C9.8373 3.57486 8.13839 5.31571 7.10378 7.87147Z" fill="#040E24"/>
<path d="M19.2763 13.2569H23.2444C23.1787 11.6603 22.7176 10.1 21.8977 8.69968H18.5431C19.0003 10.1818 19.2468 11.7141 19.2763 13.2569Z" fill="#040E24"/>
<path d="M5.89708 8.69968H2.54253C1.7231 10.1001 1.26248 11.6604 1.19717 13.2569H5.16526C5.19432 11.7142 5.44039 10.1819 5.89708 8.69968Z" fill="#040E24"/>
<path d="M6.18427 19.4722H3.08395C4.48378 21.4107 6.53937 22.8492 8.91823 23.5551C7.66718 22.4227 6.72882 21.0214 6.18427 19.4722Z" fill="#040E24"/>
<path d="M6.80147 18.6428H11.7795V14.0856H6.04758C6.07539 15.6299 6.32906 17.1633 6.80147 18.6428Z" fill="#040E24"/>
<path d="M11.7794 24V19.4722H7.10378C8.13839 22.028 9.8373 23.7688 11.7794 24Z" fill="#040E24"/>
<path d="M6.18427 7.87181C6.72856 6.32275 7.66662 4.92142 8.91735 3.78897C6.53882 4.49505 4.48356 5.93354 3.08395 7.87181H6.18427Z" fill="#040E24"/>
<path d="M6.04758 13.2569H11.7795V8.69968H6.80147C6.32906 10.1792 6.07539 11.7126 6.04758 13.2569ZM7.35276 10.6431C7.38157 10.5599 7.43769 10.4874 7.5131 10.436C7.5885 10.3845 7.67932 10.3568 7.77253 10.3568H8.48978L8.71048 9.71676C8.7395 9.63387 8.79567 9.5617 8.87096 9.51054C8.94626 9.45938 9.03684 9.43183 9.1298 9.43183C9.22275 9.43183 9.31334 9.45938 9.38863 9.51054C9.46393 9.5617 9.52009 9.63387 9.54912 9.71676L9.76981 10.3568H10.4871C10.5803 10.3568 10.6711 10.3845 10.7465 10.4359C10.822 10.4873 10.8781 10.5599 10.9069 10.6431C10.9357 10.7263 10.9357 10.8159 10.9069 10.8991C10.8781 10.9823 10.822 11.0549 10.7466 11.1063L10.1666 11.5019L10.3873 12.142C10.4163 12.2253 10.4163 12.315 10.3875 12.3984C10.3587 12.4817 10.3025 12.5543 10.227 12.6057C10.1515 12.6572 10.0605 12.6849 9.96719 12.6848C9.87386 12.6847 9.78297 12.6568 9.70757 12.6052L9.13112 12.2095L8.55114 12.6052C8.47574 12.6568 8.38485 12.6847 8.29152 12.6848C8.1982 12.6849 8.10724 12.6572 8.03172 12.6057C7.9562 12.5543 7.9 12.4817 7.87119 12.3984C7.84239 12.315 7.84246 12.2253 7.8714 12.142L8.09209 11.5019L7.51211 11.1063C7.43688 11.0547 7.38095 10.9822 7.35233 10.899C7.32371 10.8158 7.32386 10.7262 7.35276 10.6431Z" fill="#040E24"/>
<path d="M9.13098 11.2838C9.15837 11.2839 9.18569 11.2863 9.21264 11.2909C9.21922 11.24 9.23615 11.1908 9.26251 11.1459C9.2128 11.1241 9.16789 11.0937 9.1301 11.0564C9.09231 11.0937 9.04739 11.1241 8.99768 11.1459C9.02405 11.1908 9.04098 11.24 9.04756 11.2909C9.07508 11.2862 9.103 11.2838 9.13098 11.2838Z" fill="#040E24"/>
<path d="M15.5242 23.5551C17.9027 22.849 19.958 21.4105 21.3576 19.4722H18.2573C17.713 21.0213 16.7749 22.4226 15.5242 23.5551Z" fill="#040E24"/>
<path d="M15.3105 16.6698C15.3379 16.6698 15.3652 16.6722 15.3922 16.6768C15.3988 16.6259 15.4157 16.5767 15.442 16.5318C15.3923 16.51 15.3474 16.4797 15.3096 16.4423C15.2718 16.4797 15.2269 16.51 15.1772 16.5318C15.2036 16.5767 15.2205 16.6259 15.2271 16.6768C15.2546 16.6721 15.2825 16.6698 15.3105 16.6698Z" fill="#040E24"/>
<path d="M17.6402 8.69968H12.6622V13.2569H18.3941C18.3662 11.7126 18.1126 10.1792 17.6402 8.69968Z" fill="#040E24"/>
<path d="M19.2763 14.0856C19.2473 15.6283 19.0012 17.1606 18.5445 18.6428H21.8991C22.719 17.2426 23.18 15.6823 23.2458 14.0856H19.2763Z" fill="#040E24"/>
<path d="M12.6622 7.87147H17.3378C16.3032 5.31571 14.6043 3.57486 12.6622 3.34369V7.87147Z" fill="#040E24"/>
<path d="M14.4277 1.65716H12.6621V0H11.7794V1.65716H10.0138V2.90004H14.4277V1.65716Z" fill="#040E24"/>
<path d="M12.6622 18.6428H17.6402C18.1126 17.1633 18.3662 15.6299 18.3941 14.0856H12.6622V18.6428ZM13.5322 16.0291C13.561 15.9459 13.6171 15.8734 13.6925 15.8219C13.7679 15.7705 13.8587 15.7428 13.9519 15.7428H14.6692L14.8899 15.1027C14.9189 15.0198 14.9751 14.9477 15.0504 14.8965C15.1257 14.8453 15.2162 14.8178 15.3092 14.8178C15.4022 14.8178 15.4927 14.8453 15.568 14.8965C15.6433 14.9477 15.6995 15.0198 15.7285 15.1027L15.9492 15.7428H16.6665C16.7597 15.7428 16.8505 15.7705 16.9259 15.8219C17.0014 15.8733 17.0575 15.9458 17.0863 16.029C17.1151 16.1122 17.1151 16.2019 17.0863 16.2851C17.0575 16.3683 17.0014 16.4408 16.926 16.4922L16.346 16.8879L16.5667 17.528C16.5957 17.6113 16.5957 17.701 16.5669 17.7843C16.5381 17.8676 16.4819 17.9402 16.4064 17.9917C16.3309 18.0432 16.2399 18.0708 16.1466 18.0707C16.0533 18.0706 15.9624 18.0428 15.887 17.9912L15.3105 17.5955L14.7305 17.9912C14.6551 18.0428 14.5642 18.0706 14.4709 18.0707C14.3776 18.0708 14.2866 18.0432 14.2111 17.9917C14.1356 17.9402 14.0794 17.8676 14.0506 17.7843C14.0218 17.701 14.0219 17.6113 14.0508 17.528L14.2715 16.8879L13.6915 16.4922C13.6163 16.4407 13.5603 16.3681 13.5317 16.2849C13.5031 16.2017 13.5033 16.1122 13.5322 16.0291Z" fill="#040E24"/>
<path d="M12.6622 19.4722V24C14.6043 23.7688 16.3032 22.028 17.3378 19.4722H12.6622Z" fill="#040E24"/>
<path d="M22.3555 3.07581L22.8136 2.99751L23.2736 3.07871L23.3323 2.64495L23.5587 2.25966L23.135 2.07115L22.8141 1.75256L22.4932 2.07115L22.0694 2.25717L22.2946 2.64246L22.3555 3.07581Z" fill="#040E24"/>
<path d="M2.0516 3.90457L2.50976 3.82627L2.96969 3.90747L3.02839 3.47371L3.25483 3.08842L2.83109 2.89992L2.5102 2.58133L2.18931 2.89992L1.76558 3.08594L1.99069 3.47123L2.0516 3.90457Z" fill="#040E24"/>
<path d="M0.744623 22.4674L0.423733 22.786L0 22.972L0.225108 23.3573L0.28602 23.7906L0.744182 23.7123L1.20411 23.7935L1.26281 23.3598L1.48925 22.9745L1.06551 22.786L0.744623 22.4674Z" fill="#040E24"/>
<path d="M23.5763 21.9574L23.2554 21.6388L22.9345 21.9574L22.5108 22.1434L22.7359 22.5287L22.7968 22.9621L23.2549 22.8838L23.7149 22.965L23.7736 22.5312L24 22.1459L23.5763 21.9574Z" fill="#040E24"/>
</svg>
