<svg width="24" height="24" viewBox="0 0 24 24" fill="none" xmlns="http://www.w3.org/2000/svg">
<path d="M11.994 0C5.37 0 0 5.37 0 11.994C0 18.63 5.37 24 11.994 24C18.618 24 24 18.63 24 11.994C24 5.37 18.618 0 11.994 0ZM13.797 9.966C13.092 10.371 12.186 10.134 11.781 9.429C11.364 8.724 11.613 7.818 12.318 7.413C13.023 7.008 13.929 7.245 14.334 7.95C14.739 8.652 14.499 9.558 13.797 9.966ZM17.961 12.351C17.256 12.768 16.35 12.519 15.945 11.814C15.54 11.109 15.777 10.203 16.494 9.798C17.199 9.393 18.105 9.63 18.51 10.335C18.915 11.052 18.678 11.946 17.961 12.351ZM17.985 7.554C17.28 7.959 16.374 7.71 15.969 7.005C15.552 6.3 15.801 5.394 16.506 4.989C17.211 4.584 18.117 4.821 18.522 5.526C18.927 6.243 18.69 7.137 17.985 7.554Z" fill="#040E24"/>
</svg>
